PathFileType	4	(X/Y/Z)	7_1_15_p1_0-588_filt_butterworth.trc
DataRate	CameraRate	NumFrames	NumMarkers	Units	OrigDataRate	OrigDataStartFrame	OrigNumFrames
60.0	60.0	4	27	m	60.0	0	588
Frame#	Time	RHip			RKnee			RAnkle			RBigToe			RSmallToe			RHeel			LHip			LKnee			LAnkle			LBigToe			LSmallToe			LHeel			Neck			Head			Nose			RShoulder			RElbow			RWrist			RThumb			RIndex			RPinky			LShoulder			LElbow			LWrist			LThumb			LIndex			LPinky			
		X1	Y1	Z1	X2	Y2	Z2	X3	Y3	Z3	X4	Y4	Z4	X5	Y5	Z5	X6	Y6	Z6	X7	Y7	Z7	X8	Y8	Z8	X9	Y9	Z9	X10	Y10	Z10	X11	Y11	Z11	X12	Y12	Z12	X13	Y13	Z13	X14	Y14	Z14	X15	Y15	Z15	X16	Y16	Z16	X17	Y17	Z17	X18	Y18	Z18	X19	Y19	Z19	X20	Y20	Z20	X21	Y21	Z21	X22	Y22	Z22	X23	Y23	Z23	X24	Y24	Z24	X25	Y25	Z25	X26	Y26	Z26	X27	Y27	Z27	
0	0.0	0.28627420022082084	0.2702498633601931	1.1682980613454308	0.2801919083232584	0.27219338277721755	1.5951105769219829	0.2688879933857564	0.2868929199741087	2.043598576102493	0.26612000935709623	0.09841327412255964	2.006654927533221	0.32464187800279115	0.11390632159341714	1.9933949705359901	0.2519866600452876	0.32819034333318103	2.0979107654732587	0.06578797600946344	0.2836065602046039	1.191295759330368	0.08109224597937177	0.27635234475987575	1.5999359292897237	0.09934071794250389	0.26659478501909956	2.019795401775293	0.11345308077465581	0.09921642692661338	2.0186867171596226	0.06512918521868694	0.12637132142421242	2.0062493876056244	0.10981976100475854	0.30819840006785604	2.0784926423413355	0.18257661598232616	0.3049300111887277	0.6147991595457898	0.17776159931500896	0.3020943324717378	0.36949055399696856	0.15600965643204487	0.21660207244402	0.4852604557875303	0.33255741034403047	0.29287925911222906	0.7103429948017719	0.3624506895025777	0.23502007371953976	0.9505928987929225	0.23020220285305787	0.14852718995543776	1.126753114423536	0.13433700188568753	0.1866991026067692	1.2213156305077284	0.13013288654649405	0.18467838513054313	1.2351520211098972	0.14981605847695773	0.1481301329526026	1.2274573196193561	0.005951583693834604	0.2941625404199659	0.6908430724741994	-0.014372766885787163	0.2277974388131242	0.9327974430050727	0.08293575572579867	0.12263659610439567	1.1174865728210863	0.18886656836037818	0.13517617746100338	1.1520235285486495	0.19273710776258596	0.12370182114737129	1.2003625870071915	0.1414728474411131	0.15971061971805595	1.2425334462765725
1	0.0166666666666666	0.2876859511740314	0.2704577288851524	1.1684499054062778	0.28021691615137656	0.2721434347806904	1.5948395572041394	0.2639995894342063	0.28833493385863934	2.044595100048491	0.26647345596185285	0.09817725602365643	2.0039790988200186	0.32450459012093746	0.11365378366737705	1.9935293452720808	0.2501326199890669	0.3229121817501921	2.0961203141259457	0.06448393705466288	0.27752627346184766	1.1904007739070366	0.08133210754787638	0.2763740603722202	1.6008484194654822	0.09910472122013204	0.2677403075839188	2.016916925605761	0.11445666163749772	0.10485926196844828	2.023468150738305	0.0648069192403925	0.1273381081449463	2.005014835288426	0.10936600844981491	0.3096638202226383	2.0760410468237778	0.18291825999254474	0.3048196370222994	0.6184243993651265	0.17935209273777664	0.3056006190680373	0.3714515594704819	0.15987822780187805	0.21835235887440116	0.48537747328177544	0.3323399658688938	0.29375909014480117	0.7082240142746998	0.3615918251767643	0.23828805642810869	0.9518245311691902	0.23018850639173888	0.14855306704037896	1.1267135525959389	0.13695977432560122	0.17843563640503618	1.2190041113367158	0.13155248182091428	0.18109695532283623	1.2329293218302644	0.14984502070840083	0.14811630790772912	1.226300641883448	0.005984226781619463	0.2939955252194663	0.6905447367617118	-0.014444585435871663	0.22821981058628418	0.9307681420800766	0.08298726280380926	0.12282803000165285	1.1174996868730902	0.1891150942747242	0.13526577033266537	1.1530607118616572	0.19297363880060708	0.12375205409319634	1.2005555844160107	0.14362994699424375	0.16461833297284553	1.2449089539733236
2	0.0333333333333333	0.289034486824907	0.27063048531894135	1.1685340966834936	0.2802499786151554	0.27209615968214196	1.5946408907181588	0.2614804534487361	0.2894562649493656	2.0457782964816205	0.2667712772504434	0.09818232056487498	2.002460994859445	0.32444481296144334	0.11349958297949109	1.993597748068407	0.2493403582110992	0.3216708183691641	2.095906887962176	0.06384999213813465	0.2744190040610304	1.1914371763837521	0.08139786828004054	0.2763580890038275	1.6013423874980102	0.09895412372957833	0.268408901170599	2.0142576558364818	0.11450342815840106	0.10645128516993667	2.025100792867885	0.06450957417799495	0.12840776353951852	2.0040157765379107	0.10902207024719246	0.31062110662232356	2.074634753946544	0.1831262226992775	0.30470857335444607	0.6207689524239602	0.1813699146667011	0.30922770160318497	0.37321237438050814	0.1641819231293671	0.21985637086369061	0.4855419237483636	0.33220656576601854	0.2943771670600959	0.7068766740138517	0.36124456549110456	0.23961936481689805	0.9522652244303417	0.23020981900965545	0.14861758468726657	1.1272113052290453	0.14157340586566838	0.1642992274744688	1.2146548774288293	0.13488748745561224	0.1723587504737042	1.2286502074956474	0.14997253074202566	0.1481656930436656	1.2249760657197277	0.00599124925258093	0.2935724437348424	0.6903660853734899	-0.014054713806185618	0.22937605304887057	0.9309065729497659	0.08295948514839546	0.12301828924391693	1.117772219075805	0.18892438224952707	0.13493199771722758	1.1544196012612056	0.19304979651171625	0.12371139713432956	1.2006123668152713	0.14605526334456573	0.16459726211859033	1.2447400408768832
3	0.05	0.2899722712712527	0.27069078894089305	1.1685342959661835	0.2802942267408132	0.27207552110318967	1.5945759828565755	0.2616237312092641	0.29102689875054455	2.0480814212728813	0.2669718848674732	0.0984018986435269	2.0022063174026656	0.32446018689227873	0.11345860059163633	1.9936180280095352	0.2498886488742072	0.32423330219886465	2.0977070569246528	0.06368058679153218	0.2736310665243637	1.1938867204341443	0.0813713384125992	0.27644517390672696	1.6025385530251544	0.09886908197139417	0.2686025821957889	2.0121393398129435	0.1137439150286405	0.10430206839864532	2.023771199678481	0.06431027425938178	0.12938980987521076	2.0035905359624118	0.10900753809784561	0.31090659482316985	2.074221830417859	0.18318022091679698	0.3044969973068923	0.6218224314497476	0.18338536349999043	0.3121072774663994	0.3744194995190122	0.16902563416378047	0.22088784187438013	0.4857051677521032	0.3321666643978614	0.2947020731469738	0.7063708469310481	0.3615629826474325	0.2385207644386339	0.9516975364380135	0.23029873433951495	0.14874915010440953	1.1283795971148785	0.14769514602158934	0.14631137869722535	1.2087414782589512	0.13982719024770066	0.15919898234506757	1.2228064939772583	0.15019359028479676	0.14825182041938254	1.2237599519281834	0.005973458525017573	0.2929355131245337	0.6906287930497919	-0.013060148376784136	0.23184301121760384	0.9337811764275945	0.0828239544491925	0.12316394842515888	1.1185051636824874	0.1881968522434852	0.13401684030741168	1.1564592460912195	0.19270972419222288	0.12346090341695694	1.2005379258962996	0.14846084642302498	0.16007055950818225	1.2422383156341894
